<?xml version="1.0" encoding="UTF-8" standalone="no"?>
<!DOCTYPE svg PUBLIC "-//W3C//DTD SVG 1.1//EN" "http://www.w3.org/Graphics/SVG/1.1/DTD/svg11.dtd">
<svg xmlns:xl="http://www.w3.org/1999/xlink" version="1.1" xmlns:dc="http://purl.org/dc/elements/1.1/" xmlns="http://www.w3.org/2000/svg" viewBox="-76.5 208.5 1022 343" width="1022" height="343">
  <defs/>
  <g id="Canvas_1" stroke-dasharray="none" fill-opacity="1" stroke="none" fill="none" stroke-opacity="1">
    <title>Canvas 1</title>
    <g id="Canvas_1_Layer_1">
      <title>Layer 1</title>
      <g id="Graphic_6">
        <rect x="130" y="293.75" width="161" height="64" fill="white"/>
        <rect x="130" y="293.75" width="161" height="64" stroke="gray" stroke-linecap="round" stroke-linejoin="round" stroke-width="1"/>
        <text transform="translate(135 316.526)" fill="black">
          <tspan font-family="Helvetica Neue" font-size="16" fill="black" x="58.756" y="15">Java</tspan>
        </text>
      </g>
      <g id="Graphic_14">
        <rect x="336" y="209" width="161" height="64" fill="white"/>
        <rect x="336" y="209" width="161" height="64" stroke="gray" stroke-linecap="round" stroke-linejoin="round" stroke-width="1"/>
        <text transform="translate(341 230)" fill="black">
          <tspan font-family="PingFang SC" font-size="16" fill="black" x="19.5" y="17">数据结构和算法</tspan>
        </text>
      </g>
      <g id="Graphic_15">
        <rect x="542" y="378.5" width="161" height="64" fill="white"/>
        <rect x="542" y="378.5" width="161" height="64" stroke="gray" stroke-linecap="round" stroke-linejoin="round" stroke-width="1"/>
        <text transform="translate(547 399.5)" fill="black">
          <tspan font-family="PingFang SC" font-size="16" fill="black" x="51.5" y="17">数据库</tspan>
        </text>
      </g>
      <g id="Graphic_16">
        <rect x="-76" y="209" width="161" height="233.5" fill="white"/>
        <rect x="-76" y="209" width="161" height="233.5" stroke="gray" stroke-linecap="round" stroke-linejoin="round" stroke-width="1"/>
        <text transform="translate(-71 314.75)" fill="black">
          <tspan font-family="PingFang SC" font-size="16" fill="black" x="43.5" y="17">系统设计</tspan>
        </text>
      </g>
      <g id="Graphic_17">
        <rect x="130" y="378.5" width="161" height="64" fill="white"/>
        <rect x="130" y="378.5" width="161" height="64" stroke="gray" stroke-linecap="round" stroke-linejoin="round" stroke-width="1"/>
        <text transform="translate(135 399.5)" fill="black">
          <tspan font-family="PingFang SC" font-size="16" fill="black" x="59.5" y="17">框架</tspan>
        </text>
      </g>
      <g id="Graphic_18">
        <rect x="130" y="209" width="161" height="64" fill="white"/>
        <rect x="130" y="209" width="161" height="64" stroke="gray" stroke-linecap="round" stroke-linejoin="round" stroke-width="1"/>
        <text transform="translate(135 230)" fill="black">
          <tspan font-family="PingFang SC" font-size="16" fill="black" x="43.5" y="17">设计模式</tspan>
        </text>
      </g>
      <g id="Graphic_19">
        <rect x="336" y="378.5" width="161" height="64" fill="white"/>
        <rect x="336" y="378.5" width="161" height="64" stroke="gray" stroke-linecap="round" stroke-linejoin="round" stroke-width="1"/>
        <text transform="translate(341 399.5)" fill="black">
          <tspan font-family="PingFang SC" font-size="16" fill="black" x="51.5" y="17">中间件</tspan>
        </text>
      </g>
      <g id="Graphic_21">
        <rect x="784" y="378.5" width="161" height="172.5" fill="white"/>
        <rect x="784" y="378.5" width="161" height="172.5" stroke="gray" stroke-linecap="round" stroke-linejoin="round" stroke-width="1"/>
        <text transform="translate(789 453.75)" fill="black">
          <tspan font-family="PingFang SC" font-size="16" fill="black" x="43.5" y="17">部署工具</tspan>
        </text>
      </g>
      <g id="Graphic_22">
        <rect x="542" y="209" width="161" height="64" fill="white"/>
        <rect x="542" y="209" width="161" height="64" stroke="gray" stroke-linecap="round" stroke-linejoin="round" stroke-width="1"/>
        <text transform="translate(547 230)" fill="black">
          <tspan font-family="PingFang SC" font-size="16" fill="black" x="59.5" y="17">网络</tspan>
        </text>
      </g>
      <g id="Graphic_23">
        <rect x="-76" y="487" width="779" height="64" fill="white"/>
        <rect x="-76" y="487" width="779" height="64" stroke="gray" stroke-linecap="round" stroke-linejoin="round" stroke-width="1"/>
        <text transform="translate(-71 508)" fill="black">
          <tspan font-family="PingFang SC" font-size="16" fill="black" x="352.5" y="17">开发工具</tspan>
        </text>
      </g>
      <g id="Graphic_32">
        <rect x="784" y="293.75" width="161" height="64" fill="white"/>
        <rect x="784" y="293.75" width="161" height="64" stroke="gray" stroke-linecap="round" stroke-linejoin="round" stroke-width="1"/>
        <text transform="translate(789 314.75)" fill="black">
          <tspan font-family="PingFang SC" font-size="16" fill="black" x="43.5" y="17">操作系统</tspan>
        </text>
      </g>
      <g id="Graphic_33">
        <rect x="784" y="209" width="161" height="64" fill="white"/>
        <rect x="784" y="209" width="161" height="64" stroke="gray" stroke-linecap="round" stroke-linejoin="round" stroke-width="1"/>
        <text transform="translate(789 230)" fill="black">
          <tspan font-family="PingFang SC" font-size="16" fill="black" x="19.5" y="17">计算机组成原理</tspan>
        </text>
      </g>
    </g>
  </g>
</svg>
